<?xml version="1.0" encoding="iso-8859-1"?>
<!-- Generator: Adobe Illustrator 18.1.1, SVG Export Plug-In . SVG Version: 6.00 Build 0)  -->
<svg xmlns="http://www.w3.org/2000/svg" xmlns:xlink="http://www.w3.org/1999/xlink" version="1.1" id="Capa_1" x="0px" y="0px" viewBox="0 0 32 32" style="enable-background:new 0 0 32 32;" xml:space="preserve" width="512px" height="512px">
<g id="mail">
	<path d="M29,27.268H3c-1.654,0-3-1.346-3-3V7.732c0-1.654,1.346-3,3-3h26c1.654,0,3,1.346,3,3v16.536   C32,25.922,30.654,27.268,29,27.268z M3,6.732c-0.551,0-1,0.449-1,1v16.536c0,0.551,0.449,1,1,1h26c0.551,0,1-0.449,1-1V7.732   c0-0.551-0.449-1-1-1H3z" fill="#E42937"/>
	<path d="M15.999,18.782c-0.944,0-1.888-0.355-2.624-1.064L2.179,6.918C1.781,6.535,1.77,5.902,2.153,5.504   C2.538,5.108,3.17,5.096,3.567,5.479l11.196,10.799c0.692,0.668,1.777,0.667,2.469,0L28.658,5.262   c0.398-0.382,1.031-0.371,1.414,0.025c0.383,0.398,0.372,1.031-0.025,1.414L18.622,17.718   C17.886,18.428,16.942,18.782,15.999,18.782z" fill="#E42937"/>
	<path d="M1.001,23.565c-0.324,0-0.642-0.157-0.834-0.448c-0.305-0.46-0.179-1.081,0.281-1.386l10.706-7.096   c0.459-0.307,1.081-0.18,1.386,0.281c0.305,0.46,0.179,1.081-0.281,1.386L1.552,23.398C1.382,23.511,1.19,23.565,1.001,23.565z" fill="#E42937"/>
	<path d="M30.999,23.612c-0.189,0-0.381-0.054-0.551-0.166l-10.625-7.027c-0.46-0.305-0.587-0.925-0.282-1.386   c0.304-0.461,0.925-0.587,1.386-0.282l10.625,7.027c0.46,0.305,0.587,0.925,0.282,1.386C31.642,23.454,31.323,23.612,30.999,23.612   z" fill="#E42937"/>
</g>
<g>
</g>
<g>
</g>
<g>
</g>
<g>
</g>
<g>
</g>
<g>
</g>
<g>
</g>
<g>
</g>
<g>
</g>
<g>
</g>
<g>
</g>
<g>
</g>
<g>
</g>
<g>
</g>
<g>
</g>
</svg>
